<svg id="Layer_1" data-name="Layer 1" xmlns="http://www.w3.org/2000/svg" viewBox="0 0 1048.57 837.44"><defs><style>.cls-1{fill:#fff;}.cls-2{fill:#f7d25b;}.cls-3{fill:#042840;}.cls-4{fill:#0a5a8f;}.cls-5,.cls-6{fill:none;stroke:#0a5a8f;stroke-miterlimit:10;stroke-width:3px;}.cls-6{stroke-linecap:round;}.cls-7{fill:#ffe100;}.cls-8{fill:#ffa800;}.cls-9{fill:#63d3fd;}.cls-10{fill:#3db9f9;}.cls-11{fill:#fdcc00;}</style></defs><title>head</title><path class="cls-1" d="M1094,327c-60.34-65.11-180.17-60.34-180.17-60.34-107.22-.43-165.4,47.74-165.4,47.74-67.29,52.52-80.31,136.77-80.31,136.77C656,483.68,665.53,495,665.53,495,675.08,511,667.27,524,667.27,524l-43.85,95.51c-6.95,18.23,25.18,22.57,25.18,22.57,14.33-.43,16.5,8.25,16.5,8.25v7.82C649,675.55,679,686,679,686c-16.49,9.55-5.64,19.54-5.64,19.54,13,9.11,7.16,27.33,7.16,27.33-30.76,63.89,97,63.89,97,63.89,40.23,4.74,34.31,27.22,34.31,27.22v71l243.82-64.6c-3.51-132.5,54.31-203.06,54.31-203.06,35.41-53.12,43.84-130.69,43.84-130.69C1165.63,395.4,1094,327,1094,327Z" transform="translate(-363.93 -57.5)"/><path class="cls-2" d="M1113,418.83c-2.19-37.16-24-38.62-24-38.62-4.37-48.09-43-39.35-43-39.35-12.39-38.62-51.74-30.61-51.74-30.61-8.74-28.42-59.75-19.67-59.75-19.67-20.41-21.13-37.17.73-37.17.73-41.54-18.22-58.3,14.57-58.3,14.57-67-5.83-80.89,41.54-80.89,41.54-43,2.91-44.45,40.08-44.45,40.08-19.67,5.83-13.84,24.78-13.84,24.78-18.95,19.67-6.56,40.81-6.56,40.81h439.42C1139.19,422.48,1113,418.83,1113,418.83Z" transform="translate(-363.93 -57.5)"/><path class="cls-3" d="M1136.72,458.14H690.31l-1.47-2.5c-4.77-8.13-9.44-27.59,5.44-44.86-.58-3.7-.9-10.25,2.4-16.4A23.43,23.43,0,0,1,709,383.76c1.66-9.86,9.48-37.15,45.5-41.1,4.56-10.54,22.54-42.33,73.33-42.33,2.74,0,5.57.09,8.44.27a44.61,44.61,0,0,1,37.33-19.86,62,62,0,0,1,22.34,4.55c3.66-3.54,10.8-9,20.15-9,7,0,13.75,3,20.1,8.9a124.67,124.67,0,0,1,15.29-1c23.87,0,39.65,7.06,46,20.48,1.45-.13,3.22-.22,5.21-.22,10.6,0,35.65,3.09,46.64,30.8,1-.08,2.19-.13,3.47-.13,10.81,0,35.88,4.08,40.77,40.9,7.27,2.33,21.41,10.47,24.18,38.73A30.58,30.58,0,0,1,1133.54,426c5.11,7.31,6.47,16.76,4,28.11ZM696.41,448h431.95c.81-6.64-.23-12.07-3.11-16.18-4.68-6.68-12.91-8-13-8l-4.11-.57-.24-4.15c-1.87-31.79-18.7-33.81-19.41-33.88l-4.17-.4-.46-4.18c-2.66-29.23-18.38-35.37-31.1-35.37a29.79,29.79,0,0,0-5.76.5l-4.49,1-1.42-4.37c-7.37-23-25-27.79-38.44-27.79a43.67,43.67,0,0,0-7.49.59l-4.48.89-1.35-4.36c-4.42-14.36-23-17.37-37.87-17.37a106.74,106.74,0,0,0-16.2,1.2l-2.63.44-1.86-1.92c-4.91-5.08-9.86-7.66-14.7-7.66-8.48,0-14.75,7.88-14.81,8l-2.42,3.14-3.63-1.59c-7.69-3.37-15-5.08-21.63-5.08a34.67,34.67,0,0,0-30.14,17.34l-1.57,3-3.37-.27c-3.64-.31-7.24-.48-10.69-.48-53.07,0-64.79,38-64.9,38.4l-1,3.39-3.52.24c-38,2.58-39.69,33.9-39.74,35.23l-.15,3.62-3.47,1c-13.9,4.12-11.13,16.11-10.44,18.47l.83,2.82-2,2.15C690.82,428.86,694.22,442.5,696.41,448Z" transform="translate(-363.93 -57.5)"/><path class="cls-3" d="M754.49,342.66l7.44,9.57a38.14,38.14,0,0,1,25,7.31S776.66,341.54,754.49,342.66Z" transform="translate(-363.93 -57.5)"/><path class="cls-3" d="M709,383.76l9.53,7.56a24,24,0,0,1,20.72,5.51S732.18,377.61,709,383.76Z" transform="translate(-363.93 -57.5)"/><path class="cls-3" d="M694.28,410.78l11.16,2.86s11.88-8.57,23.42,0C728.86,413.64,715.12,392.38,694.28,410.78Z" transform="translate(-363.93 -57.5)"/><path class="cls-3" d="M841.88,311.19l-5.62-10.59a33.8,33.8,0,0,0,2.17,33.18A51.41,51.41,0,0,1,841.88,311.19Z" transform="translate(-363.93 -57.5)"/><path class="cls-3" d="M936.18,285.21,932.64,296s20.75,2.4,20.75,24.7C953.39,320.71,965.1,298.16,936.18,285.21Z" transform="translate(-363.93 -57.5)"/><path class="cls-3" d="M969.54,331.09a33.56,33.56,0,0,1,21.15-15l6.76-11.37C969.23,308.74,969.54,331.09,969.54,331.09Z" transform="translate(-363.93 -57.5)"/><path class="cls-3" d="M1049.3,335.31l-6.78,11.47s3.39,10.46,0,25.45C1042.52,372.23,1058.69,363,1049.3,335.31Z" transform="translate(-363.93 -57.5)"/><path class="cls-3" d="M1066.81,392.61c6.92-7.69,17.52-7.76,17.52-7.76l9.21-8.77C1069.9,374.17,1066.81,392.61,1066.81,392.61Z" transform="translate(-363.93 -57.5)"/><path class="cls-3" d="M1089.5,428.75c11.15-7.69,18.65-5.47,18.65-5.47l9.57-8.47C1097.11,412,1089.5,428.75,1089.5,428.75Z" transform="translate(-363.93 -57.5)"/><path class="cls-3" d="M744,415.28c-15.9,11.7-17.35,31.21-17.4,32l10.1.67A83.06,83.06,0,0,1,750,423.37c9.42-11.82,42.33-13.79,42.33-13.79C772.06,404.67,755.77,406.58,744,415.28Z" transform="translate(-363.93 -57.5)"/><path class="cls-3" d="M819.79,410.38c3.29-12,2.43-21.36.35-28.14,6.81-4.93,11.55-10.5,14.11-16.65a37.69,37.69,0,0,0,7.22.77,28.16,28.16,0,0,0,8.5-1.31c12.54,2.18,19.17,15.7,19.17,15.7a26.42,26.42,0,0,0-9.51-21.19A33.28,33.28,0,0,0,869,343.71s-7.2,10.06-18.31,12.52c-4.18.92-8.86.49-14.24-.52.7-14-8.73-24.81-9.16-25.29,0,0,5.55,14.43,1.31,26.34-1.95,5.49-6.78,11.28-12.88,16.1a23.53,23.53,0,0,0-3.58-4.38l-.44-.36c-9.88-7.06-19.7-9.51-29.22-7.26-16.36,3.86-25.24,20.35-25.61,21.05a59.56,59.56,0,0,1,27.93-11.2,28.51,28.51,0,0,1,20.7,5.42c13.22,10.82,7.76,50.7,7.76,50.7,1-2,1.9-3.93,2.72-5.82,13.87,15.32,12,30.62,11.85,31.33l10,1.52C838,452.88,841.19,430.5,819.79,410.38Z" transform="translate(-363.93 -57.5)"/><path class="cls-3" d="M896.63,367.36c13.32-16.47,39-19.13,39-19.13-1.48-.63-10.29-2.11-12.46-2.46,13.75-17.26,4.21-32.17,4.1-32.34,0,0-.06,18.76-20.6,34.13a37.38,37.38,0,0,0-7.37,3.7,64.4,64.4,0,0,0-1.11-17.11s-2.68,34.5-29.47,59.68c-10.05-12.66-27.8-16.1-28.63-16.26,0,0,16.38,13.52,22.9,25.83,3.47,6.54,5.94,25,1.74,34.63,0,0,15.6-14.92,9-35.08C886.76,391.5,893.4,378.75,896.63,367.36Z" transform="translate(-363.93 -57.5)"/><path class="cls-3" d="M912.71,323.72c-39.38-26-67.56,9.7-67.84,10.06C844.87,333.78,875.22,311.71,912.71,323.72Z" transform="translate(-363.93 -57.5)"/><path class="cls-3" d="M917,426.71c2.65-15.26,1.29-26.77-4-34.4,27.69-42,62-54.75,62-54.75-1.63.09-39.11,2.62-69.62,47.87a19.8,19.8,0,0,0-9.79-2.41s20.6,15.79,10.85,44.73l-.62,3.47,3,1.86c.36.23,8.94,5.81,7.94,22.77l10.1.59C927.89,439.57,921.11,430.57,917,426.71Z" transform="translate(-363.93 -57.5)"/><path class="cls-3" d="M1025.05,393.82c9.44,0,24.69-2.82,35.33-18.78,0,0-24.24,13.79-37.66,8.6a37.86,37.86,0,0,0-4.79-17.9l-.17-.27c-8.83-12.52-18.07-18.26-27.46-17.09-16,2-24.56,23.34-25.49,25.76,0,0,18.24-14.65,26.75-15.72,6.66-.83,13.34,6.42,17.81,12.72.72,1.26,5.87,10.95,1.48,22a15.46,15.46,0,0,0-5.14,1.18c-12.46,5.25-13.27,25.42-13.32,27.7,0,0,7.52-16.86,17.26-18.38,4-.63,10.51,1.79,18.55,9.24,1.78,2.14,16,20.25,0,36.71l7.26,7.05c18.42-19,8.18-41.4.18-50.59l-.36-.38c-5.23-4.87-10-8.31-14.46-10.35.19-.55.34-1.08.5-1.62C1022.45,393.76,1023.68,393.82,1025.05,393.82Z" transform="translate(-363.93 -57.5)"/><path class="cls-3" d="M1067.51,406.33c-8.35-7.7-16.69-7.57-17.62-7.51,0,0,30.29,14.69,23.74,55.68l10.11-.35C1083,431.62,1077.49,415.53,1067.51,406.33Z" transform="translate(-363.93 -57.5)"/><path class="cls-3" d="M978.94,388.64a52.28,52.28,0,0,0-21.87,3.62c-2.59-15.78-14.85-20.8-15.46-21,0,0,5.56,13.21,5.82,26.57a35.09,35.09,0,0,0-11.1,14.87,31.22,31.22,0,0,0-7.56-5.29s14,17.71,12.94,48.59l10.11.36c.55-15.6-3.15-26.59-7.74-34.16,3.86-19.61,21.69-23,30.63-23.38,4,7.94-6.7,24.49-6.7,24.49,25.4-22.43,27.51-47.34,23.67-52.58C991.68,370.7,989.46,382.15,978.94,388.64Z" transform="translate(-363.93 -57.5)"/><path class="cls-3" d="M886.06,428.68a47.84,47.84,0,0,1,19.82,2.54L917,426.71C900.06,416.35,886.06,428.68,886.06,428.68Z" transform="translate(-363.93 -57.5)"/><path class="cls-4" d="M670.37,440.53c-1.62,6.66-2.23,10.59-2.23,10.59C656,483.68,665.53,495,665.53,495,675.08,511,667.27,524,667.27,524l-43.85,95.51c-6.95,18.23,25.18,22.57,25.18,22.57,14.33-.43,16.5,8.25,16.5,8.25v7.82C649,675.55,679,686,679,686c-16.49,9.55-5.64,19.54-5.64,19.54,13,9.11,7.16,27.33,7.16,27.33-30.76,63.89,97,63.89,97,63.89,40.23,4.74,34.31,27.22,34.31,27.22v71l243.82-64.6c-3.51-132.5,54.31-203.06,54.31-203.06,35.41-53.12,43.84-130.69,43.84-130.69a193.44,193.44,0,0,0-1.65-56.06Z" transform="translate(-363.93 -57.5)"/><path class="cls-3" d="M895.93,285.21l2.92,12.25s13.38,8.07,12.62,19.66C911.47,317.12,919.21,293.62,895.93,285.21Z" transform="translate(-363.93 -57.5)"/><path class="cls-5" d="M458.44,512.24a46.51,46.51,0,1,1-46.51-46.51A46.5,46.5,0,0,1,458.44,512.24Z" transform="translate(-363.93 -57.5)"/><path class="cls-5" d="M483.66,274.12a46.5,46.5,0,1,1-46.5-46.5A46.5,46.5,0,0,1,483.66,274.12Z" transform="translate(-363.93 -57.5)"/><path class="cls-5" d="M699.63,187.68a46.51,46.51,0,1,1-46.5-46.5A46.5,46.5,0,0,1,699.63,187.68Z" transform="translate(-363.93 -57.5)"/><path class="cls-5" d="M1318,512.24a46.51,46.51,0,1,0,46.51-46.51A46.5,46.5,0,0,0,1318,512.24Z" transform="translate(-363.93 -57.5)"/><path class="cls-5" d="M1292.76,274.12a46.51,46.51,0,1,0,46.51-46.5A46.51,46.51,0,0,0,1292.76,274.12Z" transform="translate(-363.93 -57.5)"/><path class="cls-5" d="M1076.8,187.68a46.51,46.51,0,1,0,46.5-46.5A46.5,46.5,0,0,0,1076.8,187.68Z" transform="translate(-363.93 -57.5)"/><path class="cls-5" d="M934.72,105.51A46.51,46.51,0,1,1,888.22,59,46.5,46.5,0,0,1,934.72,105.51Z" transform="translate(-363.93 -57.5)"/><polyline class="cls-5" points="111.45 243.1 249.32 314.73 353.51 314.73"/><polyline class="cls-6" points="84.8 426.32 243.38 363.65 329.28 363.65"/><line class="cls-6" x1="320.26" y1="164.78" x2="417.19" y2="259.62"/><polyline class="cls-5" points="937.12 243.1 799.25 314.73 724.1 314.73"/><polyline class="cls-6" points="963.77 426.32 805.19 363.65 756.08 363.65"/><line class="cls-6" x1="728.31" y1="164.78" x2="638.34" y2="252.82"/><line class="cls-6" x1="524.28" y1="94.51" x2="524.28" y2="230.32"/><polygon class="cls-7" points="290.38 143.34 290.38 123.34 307.05 123.34 307.05 115 297.04 115 297.04 105 268.71 105 268.71 153.34 307.05 153.34 307.05 143.34 290.38 143.34"/><polygon class="cls-8" points="304.55 153.34 307.05 153.34 307.05 115 304.55 115 304.55 153.34"/><polygon class="cls-9" points="290.38 143.34 317.05 143.34 317.05 123.34 290.38 123.34 290.38 143.34"/><polygon class="cls-10" points="314.55 143.34 317.05 143.34 317.05 123.34 314.55 123.34 314.55 143.34"/><polygon class="cls-11" points="307.05 115 297.04 115 297.04 105 307.05 115"/><polygon class="cls-1" points="268.71 153.34 271.21 153.34 271.21 105 268.71 105 268.71 153.34"/><path d="M672.64,198.34a4.17,4.17,0,0,1-4.16-4.17.83.83,0,1,1,1.66,0,2.51,2.51,0,1,0,2.5-2.5,4.17,4.17,0,1,1,4.17-4.17.83.83,0,1,1-1.66,0,2.51,2.51,0,1,0-2.51,2.51,4.17,4.17,0,1,1,0,8.33Z" transform="translate(-363.93 -57.5)"/><path d="M671,173.33H661a.83.83,0,0,1-.83-.83v-10a.83.83,0,0,1,1.42-.59l10,10a.84.84,0,0,1,.28.62A.83.83,0,0,1,671,173.33Zm-9.18-1.66H669l-7.17-7.16Z" transform="translate(-363.93 -57.5)"/><path d="M681,201.67H654.31a.83.83,0,0,1-.83-.83v-20a.83.83,0,0,1,.83-.83H681a.83.83,0,0,1,.83.83v20A.83.83,0,0,1,681,201.67ZM655.14,200h25V181.67h-25V200Z" transform="translate(-363.93 -57.5)"/><path d="M671,211.67H632.64a.83.83,0,0,1-.83-.83V162.5a.83.83,0,0,1,.83-.83H661a.83.83,0,0,1,.83.83v9.17H671a.83.83,0,0,1,.83.83v8.34a.83.83,0,0,1-.83.83H655.14V200H671a.83.83,0,0,1,.83.83v10A.83.83,0,0,1,671,211.67ZM633.47,210h36.68v-8.34H654.31a.83.83,0,0,1-.83-.83v-20a.83.83,0,0,1,.83-.83h15.84v-6.68H661a.83.83,0,0,1-.83-.83v-9.17H633.47Z" transform="translate(-363.93 -57.5)"/><path d="M661.81,197.5a3.33,3.33,0,0,1-3.33-3.33.83.83,0,1,1,1.66,0,1.67,1.67,0,0,0,3.34,0v-10a.83.83,0,1,1,1.66,0v10A3.34,3.34,0,0,1,661.81,197.5Z" transform="translate(-363.93 -57.5)"/><polygon class="cls-7" points="752.3 144.52 752.3 124.51 775.63 124.51 775.63 116.18 765.63 116.18 765.63 106.18 737.29 106.18 737.29 154.52 775.63 154.52 775.63 144.52 752.3 144.52"/><polygon class="cls-8" points="773.13 154.52 775.63 154.52 775.63 116.18 773.13 116.18 773.13 154.52"/><polygon class="cls-9" points="741.46 144.52 785.63 144.52 785.63 124.51 741.46 124.51 741.46 144.52"/><polygon class="cls-10" points="783.13 144.52 785.63 144.52 785.63 124.51 783.13 124.51 783.13 144.52"/><polygon class="cls-11" points="775.63 116.18 765.63 116.18 765.63 106.18 775.63 116.18"/><polygon class="cls-1" points="737.29 154.52 739.8 154.52 739.8 106.18 737.29 106.18 737.29 154.52"/><path d="M1139.57,174.51h-10a.83.83,0,0,1-.83-.83v-10a.83.83,0,0,1,1.42-.59l10,10a.82.82,0,0,1,.28.62A.83.83,0,0,1,1139.57,174.51Zm-9.18-1.66h7.17l-7.17-7.17Z" transform="translate(-363.93 -57.5)"/><path d="M1149.57,202.85h-44.18a.83.83,0,0,1-.83-.83V182a.83.83,0,0,1,.83-.83h44.18a.83.83,0,0,1,.83.83v20A.84.84,0,0,1,1149.57,202.85Zm-43.35-1.66h42.52V182.84h-42.52Z" transform="translate(-363.93 -57.5)"/><path d="M1112.06,199.51a4.16,4.16,0,0,1-4.16-4.16.83.83,0,1,1,1.66,0,2.5,2.5,0,1,0,2.5-2.51,4.16,4.16,0,1,1,4.16-4.16.83.83,0,0,1-1.66,0,2.5,2.5,0,1,0-2.5,2.5,4.17,4.17,0,0,1,0,8.33Z" transform="translate(-363.93 -57.5)"/><path d="M1139.56,212.85h-38.33a.83.83,0,0,1-.83-.83V163.68a.83.83,0,0,1,.83-.83h28.33a.83.83,0,0,1,.83.83v9.17h9.17a.83.83,0,0,1,.83.83V182a.83.83,0,0,1-.83.83h-33.34v18.35h33.34a.83.83,0,0,1,.83.83v10A.83.83,0,0,1,1139.56,212.85Zm-37.5-1.66h36.67v-8.34h-33.34a.83.83,0,0,1-.83-.83V182a.83.83,0,0,1,.83-.83h33.34v-6.67h-9.17a.83.83,0,0,1-.83-.83v-9.17h-26.67Z" transform="translate(-363.93 -57.5)"/><path d="M1132.9,199.51a4.17,4.17,0,0,1-4.17-4.16.83.83,0,1,1,1.66,0,2.51,2.51,0,1,0,2.51-2.51,4.16,4.16,0,1,1,4.16-4.16.83.83,0,0,1-1.66,0,2.51,2.51,0,1,0-2.5,2.5,4.17,4.17,0,0,1,0,8.33Z" transform="translate(-363.93 -57.5)"/><path d="M1142.9,199.51a4.17,4.17,0,0,1-4.17-4.16.83.83,0,1,1,1.66,0,2.51,2.51,0,1,0,2.51-2.51,4.16,4.16,0,1,1,4.16-4.16.83.83,0,0,1-1.66,0,2.51,2.51,0,1,0-2.5,2.5,4.17,4.17,0,0,1,0,8.33Z" transform="translate(-363.93 -57.5)"/><path d="M1127.06,199.51a.84.84,0,0,1-.78-.54l-4.15-11.07-3.44,11a.83.83,0,0,1-1.59-.5l4.17-13.33a.83.83,0,0,1,1.57,0l5,13.33a.83.83,0,0,1-.49,1.07A.71.71,0,0,1,1127.06,199.51Z" transform="translate(-363.93 -57.5)"/><path d="M1125.19,194.51h-5.73a.83.83,0,1,1,0-1.66h5.73a.83.83,0,0,1,0,1.66Z" transform="translate(-363.93 -57.5)"/><polygon class="cls-7" points="42.53 469.28 42.53 449.28 65.87 449.28 65.87 440.94 55.87 440.94 55.87 430.94 27.53 430.94 27.53 479.28 65.87 479.28 65.87 469.28 42.53 469.28"/><polygon class="cls-8" points="63.37 479.28 65.87 479.28 65.87 440.94 63.37 440.94 63.37 479.28"/><polygon class="cls-9" points="31.7 469.28 75.87 469.28 75.87 449.28 31.7 449.28 31.7 469.28"/><polygon class="cls-10" points="73.37 469.28 75.87 469.28 75.87 449.28 73.37 449.28 73.37 469.28"/><polygon class="cls-11" points="65.87 440.94 55.87 440.94 55.87 430.94 65.87 440.94"/><polygon class="cls-1" points="27.53 479.28 30.03 479.28 30.03 430.94 27.53 430.94 27.53 479.28"/><path d="M429.8,499.27h-10a.83.83,0,0,1-.83-.83v-10a.83.83,0,0,1,1.41-.58l10,10a.86.86,0,0,1,.28.62A.83.83,0,0,1,429.8,499.27Zm-9.17-1.66h7.16l-7.16-7.16Z" transform="translate(-363.93 -57.5)"/><path d="M439.8,527.61H395.63a.83.83,0,0,1-.83-.83v-20a.83.83,0,0,1,.83-.83H439.8a.83.83,0,0,1,.83.83v20A.83.83,0,0,1,439.8,527.61ZM396.46,526H439V507.61H396.46Z" transform="translate(-363.93 -57.5)"/><path d="M429.8,537.61H391.46a.83.83,0,0,1-.83-.83V488.44a.83.83,0,0,1,.83-.83H419.8a.83.83,0,0,1,.83.83v9.17h9.17a.83.83,0,0,1,.83.83v8.34a.83.83,0,0,1-.83.83H396.46V526H429.8a.83.83,0,0,1,.83.83v10A.83.83,0,0,1,429.8,537.61ZM392.29,536H429v-8.34H395.63a.83.83,0,0,1-.83-.83v-20a.83.83,0,0,1,.83-.83H429v-6.68H419.8a.83.83,0,0,1-.83-.83v-9.17H392.29Z" transform="translate(-363.93 -57.5)"/><path d="M399.85,522.61a1.07,1.07,0,0,1-1.07-1.07V513a1.07,1.07,0,1,1,2.13,0v8.56A1.06,1.06,0,0,1,399.85,522.61Z" transform="translate(-363.93 -57.5)"/><path d="M406.27,522.61a1.07,1.07,0,0,1-1.07-1.07V513a1.07,1.07,0,1,1,2.13,0v8.56A1.06,1.06,0,0,1,406.27,522.61Z" transform="translate(-363.93 -57.5)"/><path d="M406.27,518.33h-6.42a1.07,1.07,0,0,1,0-2.14h6.42a1.07,1.07,0,0,1,0,2.14Z" transform="translate(-363.93 -57.5)"/><path d="M417,514.05h-6.42a1.07,1.07,0,0,1,0-2.14H417a1.07,1.07,0,0,1,0,2.14Z" transform="translate(-363.93 -57.5)"/><path d="M413.76,522.61a1.07,1.07,0,0,1-1.07-1.07V513a1.07,1.07,0,1,1,2.13,0v8.56A1.06,1.06,0,0,1,413.76,522.61Z" transform="translate(-363.93 -57.5)"/><path d="M427.67,522.61a1.07,1.07,0,0,1-1.07-1.07v-5.36l-1.29,1.72a1.07,1.07,0,0,1-.85.43,1.05,1.05,0,0,1-.85-.43l-1.3-1.72v5.36a1.07,1.07,0,1,1-2.13,0V513a1.07,1.07,0,0,1,.73-1,1,1,0,0,1,1.19.37l2.36,3.14,2.36-3.14a1.06,1.06,0,0,1,1.91.64v8.56A1.06,1.06,0,0,1,427.67,522.61Z" transform="translate(-363.93 -57.5)"/><path d="M436.23,522.61H432a1.07,1.07,0,0,1-1.07-1.07V513a1.07,1.07,0,1,1,2.13,0v7.49h3.22a1.07,1.07,0,0,1,0,2.14Z" transform="translate(-363.93 -57.5)"/><polygon class="cls-7" points="60.29 231.4 60.29 211.4 89.46 211.4 89.46 203.06 79.46 203.06 79.46 193.06 51.12 193.06 51.12 241.4 89.46 241.4 89.46 231.4 60.29 231.4"/><polygon class="cls-8" points="86.96 241.4 89.46 241.4 89.46 203.06 86.96 203.06 86.96 241.4"/><polygon class="cls-9" points="60.29 231.4 99.46 231.4 99.46 211.4 60.29 211.4 60.29 231.4"/><polygon class="cls-10" points="96.96 231.4 99.46 231.4 99.46 211.4 96.96 211.4 96.96 231.4"/><polygon class="cls-11" points="89.46 203.06 79.46 203.06 79.46 193.06 89.46 203.06"/><polygon class="cls-1" points="51.12 241.4 53.62 241.4 53.62 193.06 51.12 193.06 51.12 241.4"/><path d="M453.39,261.39h-10a.83.83,0,0,1-.83-.83v-10A.83.83,0,0,1,444,250l10,10a.83.83,0,0,1-.55,1.45Zm-9.17-1.66h7.16l-7.16-7.17Z" transform="translate(-363.93 -57.5)"/><path d="M463.39,289.73H424.22a.83.83,0,0,1-.83-.83v-20a.83.83,0,0,1,.83-.83h39.17a.83.83,0,0,1,.83.83v20A.83.83,0,0,1,463.39,289.73Zm-38.34-1.66h37.51V269.73H425.05Z" transform="translate(-363.93 -57.5)"/><path d="M445.89,286.39a4.17,4.17,0,0,1-4.17-4.16.83.83,0,0,1,1.66,0,2.51,2.51,0,1,0,2.51-2.5,4.17,4.17,0,1,1,4.16-4.17.83.83,0,0,1-1.66,0,2.51,2.51,0,1,0-2.5,2.51,4.16,4.16,0,1,1,0,8.32Z" transform="translate(-363.93 -57.5)"/><path d="M456.72,286.39a4.16,4.16,0,0,1-4.16-4.16.83.83,0,0,1,1.66,0,2.51,2.51,0,1,0,2.5-2.5,4.17,4.17,0,1,1,4.17-4.17.83.83,0,0,1-1.66,0,2.51,2.51,0,1,0-2.51,2.51,4.16,4.16,0,1,1,0,8.32Z" transform="translate(-363.93 -57.5)"/><path d="M434.22,286.39A7.5,7.5,0,1,1,438.91,273a.84.84,0,0,1,.12,1.17.82.82,0,0,1-1.16.13,5.78,5.78,0,0,0-3.65-1.28,5.84,5.84,0,1,0,0,11.67,5.78,5.78,0,0,0,3.65-1.28.83.83,0,0,1,1.16.13.84.84,0,0,1-.12,1.17A7.54,7.54,0,0,1,434.22,286.39Z" transform="translate(-363.93 -57.5)"/><path d="M453.39,299.73H415.05a.83.83,0,0,1-.83-.83V250.56a.83.83,0,0,1,.83-.83h28.34a.83.83,0,0,1,.83.83v9.17h9.17a.83.83,0,0,1,.83.83v8.34a.83.83,0,0,1-.83.83H425.05v18.34h28.34a.83.83,0,0,1,.83.83v10A.83.83,0,0,1,453.39,299.73Zm-37.51-1.66h36.68v-8.34H424.22a.83.83,0,0,1-.83-.83v-20a.83.83,0,0,1,.83-.83h28.34v-6.68h-9.17a.83.83,0,0,1-.83-.83v-9.17H415.88Z" transform="translate(-363.93 -57.5)"/><polygon class="cls-7" points="514.97 61.99 514.97 41.98 540.81 41.98 540.81 33.65 530.81 33.65 530.81 23.65 502.47 23.65 502.47 71.99 540.81 71.99 540.81 61.99 514.97 61.99"/><polygon class="cls-8" points="538.31 71.99 540.81 71.99 540.81 33.65 538.31 33.65 538.31 71.99"/><polygon class="cls-9" points="505.81 61.99 550.81 61.99 550.81 41.98 505.81 41.98 505.81 61.99"/><polygon class="cls-10" points="548.31 61.99 550.81 61.99 550.81 41.98 548.31 41.98 548.31 61.99"/><polygon class="cls-11" points="540.81 33.65 530.81 33.65 530.81 23.65 540.81 33.65"/><polygon class="cls-1" points="502.47 71.99 504.97 71.99 504.97 23.65 502.47 23.65 502.47 71.99"/><path d="M904.74,92h-10a.83.83,0,0,1-.83-.83v-10a.83.83,0,0,1,1.42-.59l10,10a.83.83,0,0,1-.55,1.45Zm-9.17-1.66h7.17l-7.17-7.17Z" transform="translate(-363.93 -57.5)"/><path d="M914.74,120.32h-45a.83.83,0,0,1-.83-.83v-20a.83.83,0,0,1,.83-.83h45a.83.83,0,0,1,.83.83v20A.83.83,0,0,1,914.74,120.32Zm-44.17-1.66h43.34V100.31H870.57Z" transform="translate(-363.93 -57.5)"/><path d="M885.57,117a4.16,4.16,0,0,1-4.16-4.16.83.83,0,1,1,1.66,0,2.5,2.5,0,1,0,2.5-2.5,4.17,4.17,0,1,1,4.16-4.17.83.83,0,0,1-1.66,0,2.5,2.5,0,1,0-2.5,2.51,4.16,4.16,0,0,1,0,8.32Z" transform="translate(-363.93 -57.5)"/><path d="M904.74,130.32H866.4a.83.83,0,0,1-.83-.83V81.15a.83.83,0,0,1,.83-.83h28.34a.83.83,0,0,1,.83.83v9.17h9.17a.83.83,0,0,1,.83.83v8.33a.83.83,0,0,1-.83.83H870.57v18.35h34.17a.83.83,0,0,1,.83.83v10A.83.83,0,0,1,904.74,130.32Zm-37.51-1.66h36.68v-8.34H869.74a.83.83,0,0,1-.83-.83v-20a.83.83,0,0,1,.83-.83h34.17V92h-9.17a.83.83,0,0,1-.83-.83V82H867.23Z" transform="translate(-363.93 -57.5)"/><path d="M875.57,117a3.33,3.33,0,0,1-3.33-3.33.83.83,0,1,1,1.66,0,1.67,1.67,0,1,0,3.34,0v-10a.83.83,0,1,1,1.66,0v10A3.33,3.33,0,0,1,875.57,117Z" transform="translate(-363.93 -57.5)"/><path d="M896.41,117h-.84a3.34,3.34,0,0,1-3.33-3.33v-8.33a3.34,3.34,0,0,1,3.33-3.33h.84a3.34,3.34,0,0,1,3.33,3.33v8.33A3.34,3.34,0,0,1,896.41,117Zm-.84-13.33a1.67,1.67,0,0,0-1.67,1.67v8.33a1.67,1.67,0,0,0,1.67,1.67h.84a1.67,1.67,0,0,0,1.67-1.67v-8.33a1.67,1.67,0,0,0-1.67-1.67Z" transform="translate(-363.93 -57.5)"/><path d="M911.41,117a.84.84,0,0,1-.71-.39l-6.8-10.88v10.44a.83.83,0,1,1-1.66,0V102.82a.83.83,0,0,1,1.54-.44l6.8,10.88V102.82a.83.83,0,0,1,1.66,0v13.33a.84.84,0,0,1-.6.8Z" transform="translate(-363.93 -57.5)"/><polygon class="cls-7" points="971.47 231.99 971.47 211.98 994.81 211.98 994.81 203.65 984.81 203.65 984.81 193.65 956.47 193.65 956.47 241.99 994.81 241.99 994.81 231.99 971.47 231.99"/><polygon class="cls-8" points="992.31 241.99 994.81 241.99 994.81 203.65 992.31 203.65 992.31 241.99"/><polygon class="cls-9" points="971.47 231.99 1004.81 231.99 1004.81 211.98 971.47 211.98 971.47 231.99"/><polygon class="cls-10" points="1002.31 231.99 1004.81 231.99 1004.81 211.98 1002.31 211.98 1002.31 231.99"/><polygon class="cls-11" points="994.81 203.65 984.81 203.65 984.81 193.65 994.81 203.65"/><polygon class="cls-1" points="956.47 241.99 958.97 241.99 958.97 193.65 956.47 193.65 956.47 241.99"/><path d="M1358.74,262h-10a.83.83,0,0,1-.83-.83v-10a.83.83,0,0,1,1.42-.59l10,10a.83.83,0,0,1-.55,1.45Zm-9.17-1.66h7.17l-7.17-7.17Z" transform="translate(-363.93 -57.5)"/><path d="M1368.74,290.32H1335.4a.83.83,0,0,1-.83-.83v-20a.83.83,0,0,1,.83-.83h33.34a.83.83,0,0,1,.83.83v20A.83.83,0,0,1,1368.74,290.32Zm-32.51-1.66h31.68V270.31h-31.68Z" transform="translate(-363.93 -57.5)"/><path d="M1350.41,287a4.17,4.17,0,0,1-4.17-4.16.83.83,0,0,1,1.66,0,2.51,2.51,0,1,0,2.51-2.5,4.17,4.17,0,1,1,4.16-4.17.83.83,0,1,1-1.66,0,2.51,2.51,0,1,0-2.5,2.51,4.16,4.16,0,0,1,0,8.32Z" transform="translate(-363.93 -57.5)"/><path d="M1358.74,300.32H1320.4a.83.83,0,0,1-.83-.83V251.15a.83.83,0,0,1,.83-.83h28.34a.83.83,0,0,1,.83.83v9.17h9.17a.83.83,0,0,1,.83.83v8.33a.83.83,0,0,1-.83.83h-22.51v18.35h22.51a.83.83,0,0,1,.83.83v10A.83.83,0,0,1,1358.74,300.32Zm-37.51-1.66h36.68v-8.34H1335.4a.83.83,0,0,1-.83-.83v-20a.83.83,0,0,1,.83-.83h22.51V262h-9.17a.83.83,0,0,1-.83-.83V252h-26.68Z" transform="translate(-363.93 -57.5)"/><path d="M1341.24,287a3.33,3.33,0,0,1-3.33-3.33.83.83,0,0,1,1.66,0,1.67,1.67,0,0,0,3.34,0v-10a.83.83,0,0,1,1.66,0v10A3.34,3.34,0,0,1,1341.24,287Z" transform="translate(-363.93 -57.5)"/><path d="M1365.41,287a.82.82,0,0,1-.71-.39l-8.33-13.33a.83.83,0,1,1,1.41-.88l8.33,13.33a.84.84,0,0,1-.26,1.15A.88.88,0,0,1,1365.41,287Z" transform="translate(-363.93 -57.5)"/><path d="M1357.07,287a.88.88,0,0,1-.44-.12.84.84,0,0,1-.26-1.15l8.33-13.33a.83.83,0,1,1,1.41.88l-8.33,13.33A.82.82,0,0,1,1357.07,287Z" transform="translate(-363.93 -57.5)"/><polygon class="cls-7" points="1003.14 468.99 1003.14 448.98 1019.81 448.98 1019.81 440.65 1009.81 440.65 1009.81 430.65 981.47 430.65 981.47 478.99 1019.81 478.99 1019.81 468.99 1003.14 468.99"/><polygon class="cls-8" points="1017.31 478.99 1019.81 478.99 1019.81 440.65 1017.31 440.65 1017.31 478.99"/><polygon class="cls-9" points="1003.14 468.99 1029.81 468.99 1029.81 448.98 1003.14 448.98 1003.14 468.99"/><polygon class="cls-10" points="1027.31 468.99 1029.81 468.99 1029.81 448.98 1027.31 448.98 1027.31 468.99"/><polygon class="cls-11" points="1019.81 440.65 1009.81 440.65 1009.81 430.65 1019.81 440.65"/><polygon class="cls-1" points="981.47 478.99 983.97 478.99 983.97 430.65 981.47 430.65 981.47 478.99"/><path d="M1387.07,524a4.16,4.16,0,0,1-4.16-4.16.83.83,0,0,1,1.66,0,2.51,2.51,0,1,0,2.5-2.5,4.17,4.17,0,1,1,4.17-4.17.83.83,0,0,1-1.66,0,2.51,2.51,0,1,0-2.51,2.51,4.16,4.16,0,1,1,0,8.32Z" transform="translate(-363.93 -57.5)"/><path d="M1383.74,499h-10a.83.83,0,0,1-.83-.83v-10a.83.83,0,0,1,1.42-.59l10,10a.83.83,0,0,1-.55,1.45Zm-9.17-1.66h7.17l-7.17-7.17Z" transform="translate(-363.93 -57.5)"/><path d="M1393.74,527.32h-26.67a.83.83,0,0,1-.83-.83v-20a.83.83,0,0,1,.83-.83h26.67a.83.83,0,0,1,.83.83v20A.83.83,0,0,1,1393.74,527.32Zm-25.84-1.66h25V507.31h-25v18.35Z" transform="translate(-363.93 -57.5)"/><path d="M1383.74,537.32H1345.4a.83.83,0,0,1-.83-.83V488.15a.83.83,0,0,1,.83-.83h28.34a.83.83,0,0,1,.83.83v9.17h9.17a.83.83,0,0,1,.83.83v8.33a.83.83,0,0,1-.83.83H1367.9v18.35h15.84a.83.83,0,0,1,.83.83v10A.83.83,0,0,1,1383.74,537.32Zm-37.51-1.66h36.68v-8.34h-15.84a.83.83,0,0,1-.83-.83v-20a.83.83,0,0,1,.83-.83h15.84V499h-9.17a.83.83,0,0,1-.83-.83V489h-26.68Z" transform="translate(-363.93 -57.5)"/><path d="M1380.41,510.65h-10a.83.83,0,1,1,0-1.66h10a.83.83,0,0,1,0,1.66Z" transform="translate(-363.93 -57.5)"/><path d="M1375.41,524a.83.83,0,0,1-.83-.83V509.82a.83.83,0,1,1,1.66,0v13.33A.83.83,0,0,1,1375.41,524Z" transform="translate(-363.93 -57.5)"/></svg>