<svg id="Layer_1" data-name="Layer 1" xmlns="http://www.w3.org/2000/svg" width="12.857" height="20" viewBox="0 0 12.857 20"><title>arrow_13x20</title><path d="M266.8,196.877a.716.716,0,0,1-.659.447h-4.263l2.243,5.312a.717.717,0,0,1-.38.937l-1.975.837a.719.719,0,0,1-.938-.379l-2.131-5.045-3.482,3.481a.691.691,0,0,1-.77.156.716.716,0,0,1-.447-.658V185.181a.716.716,0,0,1,.447-.659.724.724,0,0,1,.268-.056.669.669,0,0,1,.5.212l11.428,11.428A.689.689,0,0,1,266.8,196.877Z" transform="translate(-254 -184.467)" fill="#333"/></svg>